<svg width="300" height="450" viewBox="0 0 300 450" fill="none" xmlns="http://www.w3.org/2000/svg">
<rect width="300" height="450" fill="#D9D9D9"/>
<path d="M31.0884 186.909V216H27.5657V186.909H31.0884ZM41.0494 202.875V216H37.6971V194.182H40.9357V197.591H41.2198C41.7312 196.483 42.5077 195.593 43.5494 194.92C44.591 194.239 45.9357 193.898 47.5835 193.898C49.0607 193.898 50.3533 194.201 51.4613 194.807C52.5692 195.403 53.431 196.312 54.0465 197.534C54.6621 198.746 54.9698 200.28 54.9698 202.136V216H51.6175V202.364C51.6175 200.65 51.1725 199.314 50.2823 198.358C49.3922 197.392 48.1706 196.909 46.6175 196.909C45.5475 196.909 44.591 197.141 43.7482 197.605C42.9149 198.069 42.2567 198.746 41.7738 199.636C41.2908 200.527 41.0494 201.606 41.0494 202.875ZM76.5501 199.068L73.5387 199.92C73.3493 199.419 73.07 198.931 72.7006 198.457C72.3408 197.974 71.8484 197.577 71.2234 197.264C70.5984 196.952 69.7982 196.795 68.8228 196.795C67.4876 196.795 66.3749 197.103 65.4847 197.719C64.604 198.325 64.1637 199.097 64.1637 200.034C64.1637 200.867 64.4667 201.526 65.0728 202.009C65.6789 202.491 66.6258 202.894 67.9137 203.216L71.1523 204.011C73.1031 204.485 74.5567 205.209 75.5131 206.185C76.4696 207.151 76.9478 208.396 76.9478 209.92C76.9478 211.17 76.588 212.288 75.8683 213.273C75.158 214.258 74.1637 215.034 72.8853 215.602C71.6069 216.17 70.1201 216.455 68.4251 216.455C66.1997 216.455 64.3578 215.972 62.8995 215.006C61.4412 214.04 60.5179 212.629 60.1296 210.773L63.3114 209.977C63.6145 211.152 64.1874 212.032 65.0302 212.619C65.8825 213.206 66.9951 213.5 68.3683 213.5C69.9308 213.5 71.1713 213.169 72.0898 212.506C73.0179 211.833 73.4819 211.028 73.4819 210.091C73.4819 209.333 73.2167 208.699 72.6864 208.188C72.1561 207.667 71.3417 207.278 70.2433 207.023L66.6069 206.17C64.6088 205.697 63.141 204.963 62.2035 203.969C61.2754 202.965 60.8114 201.71 60.8114 200.205C60.8114 198.973 61.1571 197.884 61.8484 196.938C62.5491 195.991 63.5008 195.247 64.7035 194.707C65.9156 194.168 67.2887 193.898 68.8228 193.898C70.9819 193.898 72.677 194.371 73.908 195.318C75.1486 196.265 76.0292 197.515 76.5501 199.068ZM91.1417 216.455C89.0394 216.455 87.226 215.991 85.7013 215.062C84.1862 214.125 83.0167 212.818 82.1928 211.142C81.3784 209.456 80.9712 207.496 80.9712 205.261C80.9712 203.027 81.3784 201.057 82.1928 199.352C83.0167 197.638 84.1625 196.303 85.6303 195.347C87.1076 194.381 88.8311 193.898 90.8008 193.898C91.9371 193.898 93.0593 194.087 94.1673 194.466C95.2752 194.845 96.2837 195.46 97.1928 196.312C98.1019 197.155 98.8264 198.273 99.3661 199.665C99.9059 201.057 100.176 202.771 100.176 204.807V206.227H83.3576V203.33H96.7667C96.7667 202.098 96.5205 201 96.0281 200.034C95.5451 199.068 94.8538 198.306 93.9542 197.747C93.064 197.188 92.0129 196.909 90.8008 196.909C89.4656 196.909 88.3103 197.241 87.3349 197.903C86.369 198.557 85.6256 199.409 85.1048 200.46C84.5839 201.511 84.3235 202.638 84.3235 203.841V205.773C84.3235 207.42 84.6076 208.817 85.1758 209.963C85.7534 211.099 86.5536 211.966 87.5763 212.562C88.5991 213.15 89.7875 213.443 91.1417 213.443C92.0224 213.443 92.8178 213.32 93.5281 213.074C94.2478 212.818 94.868 212.439 95.3888 211.938C95.9097 211.426 96.3121 210.792 96.5962 210.034L99.8349 210.943C99.494 212.042 98.921 213.008 98.1161 213.841C97.3112 214.665 96.3169 215.309 95.1332 215.773C93.9495 216.227 92.619 216.455 91.1417 216.455ZM105.275 216V194.182H108.514V197.477H108.741C109.139 196.398 109.859 195.522 110.9 194.849C111.942 194.177 113.116 193.841 114.423 193.841C114.669 193.841 114.977 193.846 115.346 193.855C115.716 193.865 115.995 193.879 116.184 193.898V197.307C116.071 197.278 115.81 197.236 115.403 197.179C115.005 197.113 114.584 197.08 114.139 197.08C113.078 197.08 112.131 197.302 111.298 197.747C110.474 198.183 109.821 198.789 109.338 199.565C108.864 200.332 108.627 201.208 108.627 202.193V216H105.275ZM131.014 194.182V197.023H119.707V194.182H131.014ZM123.002 188.955H126.355V209.75C126.355 210.697 126.492 211.407 126.767 211.881C127.051 212.345 127.411 212.657 127.846 212.818C128.291 212.97 128.76 213.045 129.252 213.045C129.622 213.045 129.925 213.027 130.162 212.989C130.398 212.941 130.588 212.903 130.73 212.875L131.412 215.886C131.184 215.972 130.867 216.057 130.46 216.142C130.053 216.237 129.537 216.284 128.912 216.284C127.965 216.284 127.037 216.08 126.127 215.673C125.228 215.266 124.48 214.646 123.883 213.812C123.296 212.979 123.002 211.928 123.002 210.659V188.955ZM155.545 216.455C153.727 216.455 152.122 215.995 150.73 215.077C149.338 214.149 148.249 212.842 147.463 211.156C146.677 209.461 146.284 207.458 146.284 205.148C146.284 202.856 146.677 200.867 147.463 199.182C148.249 197.496 149.342 196.194 150.744 195.276C152.145 194.357 153.765 193.898 155.602 193.898C157.022 193.898 158.145 194.134 158.968 194.608C159.802 195.072 160.436 195.602 160.872 196.199C161.317 196.786 161.663 197.269 161.909 197.648H162.193V186.909H165.545V216H162.306V212.648H161.909C161.663 213.045 161.312 213.547 160.858 214.153C160.403 214.75 159.754 215.285 158.912 215.759C158.069 216.223 156.947 216.455 155.545 216.455ZM156 213.443C157.344 213.443 158.481 213.093 159.409 212.392C160.337 211.682 161.042 210.702 161.525 209.452C162.008 208.192 162.25 206.739 162.25 205.091C162.25 203.462 162.013 202.037 161.539 200.815C161.066 199.584 160.365 198.628 159.437 197.946C158.509 197.255 157.363 196.909 156 196.909C154.579 196.909 153.395 197.274 152.449 198.003C151.511 198.723 150.806 199.703 150.332 200.943C149.868 202.174 149.636 203.557 149.636 205.091C149.636 206.644 149.873 208.055 150.346 209.324C150.829 210.583 151.539 211.587 152.477 212.335C153.424 213.074 154.598 213.443 156 213.443ZM181.298 216.455C179.196 216.455 177.382 215.991 175.858 215.062C174.342 214.125 173.173 212.818 172.349 211.142C171.535 209.456 171.127 207.496 171.127 205.261C171.127 203.027 171.535 201.057 172.349 199.352C173.173 197.638 174.319 196.303 175.787 195.347C177.264 194.381 178.987 193.898 180.957 193.898C182.093 193.898 183.216 194.087 184.324 194.466C185.431 194.845 186.44 195.46 187.349 196.312C188.258 197.155 188.983 198.273 189.522 199.665C190.062 201.057 190.332 202.771 190.332 204.807V206.227H173.514V203.33H186.923C186.923 202.098 186.677 201 186.184 200.034C185.701 199.068 185.01 198.306 184.11 197.747C183.22 197.188 182.169 196.909 180.957 196.909C179.622 196.909 178.467 197.241 177.491 197.903C176.525 198.557 175.782 199.409 175.261 200.46C174.74 201.511 174.48 202.638 174.48 203.841V205.773C174.48 207.42 174.764 208.817 175.332 209.963C175.91 211.099 176.71 211.966 177.733 212.562C178.755 213.15 179.944 213.443 181.298 213.443C182.179 213.443 182.974 213.32 183.684 213.074C184.404 212.818 185.024 212.439 185.545 211.938C186.066 211.426 186.468 210.792 186.752 210.034L189.991 210.943C189.65 212.042 189.077 213.008 188.272 213.841C187.467 214.665 186.473 215.309 185.289 215.773C184.106 216.227 182.775 216.455 181.298 216.455ZM205.147 194.182V197.023H193.386V194.182H205.147ZM196.909 216V191.17C196.909 189.92 197.202 188.879 197.789 188.045C198.377 187.212 199.139 186.587 200.076 186.17C201.014 185.754 202.003 185.545 203.045 185.545C203.869 185.545 204.541 185.612 205.062 185.744C205.583 185.877 205.971 186 206.227 186.114L205.261 189.011C205.091 188.955 204.854 188.884 204.551 188.798C204.257 188.713 203.869 188.67 203.386 188.67C202.278 188.67 201.478 188.95 200.985 189.509C200.502 190.067 200.261 190.886 200.261 191.966V216H196.909ZM215.641 216.511C214.258 216.511 213.004 216.251 211.877 215.73C210.75 215.2 209.855 214.438 209.192 213.443C208.529 212.439 208.198 211.227 208.198 209.807C208.198 208.557 208.444 207.544 208.936 206.767C209.429 205.981 210.087 205.366 210.911 204.92C211.735 204.475 212.644 204.144 213.638 203.926C214.642 203.699 215.65 203.519 216.664 203.386C217.989 203.216 219.064 203.088 219.888 203.003C220.721 202.908 221.328 202.752 221.706 202.534C222.095 202.316 222.289 201.937 222.289 201.398V201.284C222.289 199.883 221.905 198.794 221.138 198.017C220.381 197.241 219.23 196.852 217.686 196.852C216.086 196.852 214.831 197.203 213.922 197.903C213.013 198.604 212.374 199.352 212.005 200.148L208.823 199.011C209.391 197.686 210.149 196.653 211.096 195.915C212.052 195.167 213.094 194.646 214.221 194.352C215.357 194.049 216.474 193.898 217.573 193.898C218.274 193.898 219.078 193.983 219.988 194.153C220.906 194.314 221.792 194.651 222.644 195.162C223.506 195.673 224.221 196.445 224.789 197.477C225.357 198.509 225.641 199.892 225.641 201.625V216H222.289V213.045H222.118C221.891 213.519 221.512 214.026 220.982 214.565C220.452 215.105 219.746 215.564 218.865 215.943C217.985 216.322 216.91 216.511 215.641 216.511ZM216.152 213.5C217.478 213.5 218.596 213.24 219.505 212.719C220.423 212.198 221.114 211.526 221.578 210.702C222.052 209.878 222.289 209.011 222.289 208.102V205.034C222.147 205.205 221.834 205.361 221.351 205.503C220.878 205.635 220.328 205.754 219.703 205.858C219.088 205.953 218.487 206.038 217.9 206.114C217.322 206.18 216.853 206.237 216.493 206.284C215.622 206.398 214.808 206.582 214.05 206.838C213.302 207.084 212.696 207.458 212.232 207.96C211.777 208.453 211.55 209.125 211.55 209.977C211.55 211.142 211.981 212.023 212.843 212.619C213.714 213.206 214.817 213.5 216.152 213.5ZM245.51 207.08V194.182H248.862V216H245.51V212.307H245.282C244.771 213.415 243.975 214.357 242.896 215.134C241.816 215.901 240.453 216.284 238.805 216.284C237.441 216.284 236.229 215.986 235.169 215.389C234.108 214.783 233.275 213.874 232.669 212.662C232.063 211.44 231.76 209.902 231.76 208.045V194.182H235.112V207.818C235.112 209.409 235.557 210.678 236.447 211.625C237.347 212.572 238.493 213.045 239.885 213.045C240.718 213.045 241.565 212.832 242.427 212.406C243.298 211.98 244.028 211.327 244.615 210.446C245.211 209.565 245.51 208.443 245.51 207.08ZM258.354 186.909V216H255.002V186.909H258.354ZM273.983 194.182V197.023H262.676V194.182H273.983ZM265.971 188.955H269.324V209.75C269.324 210.697 269.461 211.407 269.735 211.881C270.02 212.345 270.379 212.657 270.815 212.818C271.26 212.97 271.729 213.045 272.221 213.045C272.591 213.045 272.894 213.027 273.13 212.989C273.367 212.941 273.556 212.903 273.699 212.875L274.38 215.886C274.153 215.972 273.836 216.057 273.429 216.142C273.021 216.237 272.505 216.284 271.88 216.284C270.933 216.284 270.005 216.08 269.096 215.673C268.197 215.266 267.449 214.646 266.852 213.812C266.265 212.979 265.971 211.928 265.971 210.659V188.955ZM61.5607 264.455C59.5153 264.455 57.7539 263.972 56.2766 263.006C54.7994 262.04 53.663 260.709 52.8675 259.014C52.0721 257.319 51.6744 255.383 51.6744 253.205C51.6744 250.989 52.0816 249.033 52.896 247.338C53.7198 245.634 54.8656 244.303 56.3335 243.347C57.8107 242.381 59.5342 241.898 61.5039 241.898C63.038 241.898 64.4206 242.182 65.6516 242.75C66.8827 243.318 67.8912 244.114 68.6772 245.136C69.4632 246.159 69.9509 247.352 70.1403 248.716H66.788C66.5323 247.722 65.9641 246.841 65.0835 246.074C64.2122 245.297 63.038 244.909 61.5607 244.909C60.2539 244.909 59.1081 245.25 58.1232 245.932C57.1478 246.604 56.3855 247.556 55.8363 248.787C55.2965 250.009 55.0266 251.443 55.0266 253.091C55.0266 254.777 55.2918 256.244 55.8221 257.494C56.3619 258.744 57.1194 259.715 58.0948 260.406C59.0797 261.098 60.235 261.443 61.5607 261.443C62.4319 261.443 63.2227 261.292 63.9329 260.989C64.6431 260.686 65.2444 260.25 65.7369 259.682C66.2293 259.114 66.5797 258.432 66.788 257.636H70.1403C69.9509 258.924 69.4821 260.084 68.734 261.116C67.9954 262.139 67.0153 262.954 65.7937 263.56C64.5816 264.156 63.1706 264.455 61.5607 264.455ZM83.9045 264.455C81.9348 264.455 80.2066 263.986 78.7198 263.048C77.2425 262.111 76.0872 260.799 75.2539 259.114C74.43 257.428 74.0181 255.458 74.0181 253.205C74.0181 250.932 74.43 248.948 75.2539 247.253C76.0872 245.558 77.2425 244.241 78.7198 243.304C80.2066 242.366 81.9348 241.898 83.9045 241.898C85.8742 241.898 87.5977 242.366 89.0749 243.304C90.5617 244.241 91.717 245.558 92.5408 247.253C93.3742 248.948 93.7908 250.932 93.7908 253.205C93.7908 255.458 93.3742 257.428 92.5408 259.114C91.717 260.799 90.5617 262.111 89.0749 263.048C87.5977 263.986 85.8742 264.455 83.9045 264.455ZM83.9045 261.443C85.4007 261.443 86.6317 261.06 87.5977 260.293C88.5636 259.526 89.2785 258.517 89.7425 257.267C90.2066 256.017 90.4386 254.663 90.4386 253.205C90.4386 251.746 90.2066 250.387 89.7425 249.128C89.2785 247.868 88.5636 246.85 87.5977 246.074C86.6317 245.297 85.4007 244.909 83.9045 244.909C82.4083 244.909 81.1772 245.297 80.2113 246.074C79.2454 246.85 78.5304 247.868 78.0664 249.128C77.6024 250.387 77.3704 251.746 77.3704 253.205C77.3704 254.663 77.6024 256.017 78.0664 257.267C78.5304 258.517 79.2454 259.526 80.2113 260.293C81.1772 261.06 82.4083 261.443 83.9045 261.443ZM115.968 242.182L107.9 264H104.49L96.4222 242.182H100.059L106.081 259.568H106.309L112.331 242.182H115.968ZM128.759 264.455C126.657 264.455 124.843 263.991 123.319 263.062C121.803 262.125 120.634 260.818 119.81 259.142C118.996 257.456 118.588 255.496 118.588 253.261C118.588 251.027 118.996 249.057 119.81 247.352C120.634 245.638 121.78 244.303 123.248 243.347C124.725 242.381 126.448 241.898 128.418 241.898C129.554 241.898 130.676 242.087 131.784 242.466C132.892 242.845 133.901 243.46 134.81 244.312C135.719 245.155 136.444 246.273 136.983 247.665C137.523 249.057 137.793 250.771 137.793 252.807V254.227H120.975V251.33H134.384C134.384 250.098 134.138 249 133.645 248.034C133.162 247.068 132.471 246.306 131.571 245.747C130.681 245.188 129.63 244.909 128.418 244.909C127.083 244.909 125.927 245.241 124.952 245.903C123.986 246.557 123.243 247.409 122.722 248.46C122.201 249.511 121.941 250.638 121.941 251.841V253.773C121.941 255.42 122.225 256.817 122.793 257.963C123.371 259.099 124.171 259.966 125.194 260.562C126.216 261.15 127.405 261.443 128.759 261.443C129.64 261.443 130.435 261.32 131.145 261.074C131.865 260.818 132.485 260.439 133.006 259.938C133.527 259.426 133.929 258.792 134.213 258.034L137.452 258.943C137.111 260.042 136.538 261.008 135.733 261.841C134.928 262.665 133.934 263.309 132.75 263.773C131.567 264.227 130.236 264.455 128.759 264.455ZM142.892 264V242.182H146.131V245.477H146.358C146.756 244.398 147.476 243.522 148.517 242.849C149.559 242.177 150.733 241.841 152.04 241.841C152.286 241.841 152.594 241.846 152.963 241.855C153.333 241.865 153.612 241.879 153.801 241.898V245.307C153.688 245.278 153.427 245.236 153.02 245.179C152.623 245.113 152.201 245.08 151.756 245.08C150.695 245.08 149.748 245.302 148.915 245.747C148.091 246.183 147.438 246.789 146.955 247.565C146.481 248.332 146.245 249.208 146.245 250.193V264H142.892ZM172.377 250.875V264H169.025V234.909H172.377V245.591H172.662C173.173 244.464 173.94 243.569 174.963 242.906C175.995 242.234 177.368 241.898 179.082 241.898C180.569 241.898 181.871 242.196 182.988 242.793C184.106 243.38 184.972 244.284 185.588 245.506C186.213 246.718 186.525 248.261 186.525 250.136V264H183.173V250.364C183.173 248.631 182.723 247.291 181.824 246.344C180.933 245.387 179.698 244.909 178.116 244.909C177.018 244.909 176.033 245.141 175.162 245.605C174.3 246.069 173.618 246.746 173.116 247.636C172.624 248.527 172.377 249.606 172.377 250.875ZM201.806 264.455C199.703 264.455 197.89 263.991 196.365 263.062C194.85 262.125 193.681 260.818 192.857 259.142C192.042 257.456 191.635 255.496 191.635 253.261C191.635 251.027 192.042 249.057 192.857 247.352C193.681 245.638 194.827 244.303 196.294 243.347C197.772 242.381 199.495 241.898 201.465 241.898C202.601 241.898 203.723 242.087 204.831 242.466C205.939 242.845 206.948 243.46 207.857 244.312C208.766 245.155 209.49 246.273 210.03 247.665C210.57 249.057 210.84 250.771 210.84 252.807V254.227H194.022V251.33H207.431C207.431 250.098 207.185 249 206.692 248.034C206.209 247.068 205.518 246.306 204.618 245.747C203.728 245.188 202.677 244.909 201.465 244.909C200.13 244.909 198.974 245.241 197.999 245.903C197.033 246.557 196.29 247.409 195.769 248.46C195.248 249.511 194.988 250.638 194.988 251.841V253.773C194.988 255.42 195.272 256.817 195.84 257.963C196.417 259.099 197.218 259.966 198.24 260.562C199.263 261.15 200.452 261.443 201.806 261.443C202.686 261.443 203.482 261.32 204.192 261.074C204.912 260.818 205.532 260.439 206.053 259.938C206.574 259.426 206.976 258.792 207.26 258.034L210.499 258.943C210.158 260.042 209.585 261.008 208.78 261.841C207.975 262.665 206.981 263.309 205.797 263.773C204.614 264.227 203.283 264.455 201.806 264.455ZM215.939 264V242.182H219.178V245.477H219.405C219.803 244.398 220.523 243.522 221.564 242.849C222.606 242.177 223.78 241.841 225.087 241.841C225.333 241.841 225.641 241.846 226.01 241.855C226.38 241.865 226.659 241.879 226.848 241.898V245.307C226.735 245.278 226.474 245.236 226.067 245.179C225.669 245.113 225.248 245.08 224.803 245.08C223.742 245.08 222.795 245.302 221.962 245.747C221.138 246.183 220.485 246.789 220.002 247.565C219.528 248.332 219.292 249.208 219.292 250.193V264H215.939ZM239.306 264.455C237.203 264.455 235.39 263.991 233.865 263.062C232.35 262.125 231.181 260.818 230.357 259.142C229.542 257.456 229.135 255.496 229.135 253.261C229.135 251.027 229.542 249.057 230.357 247.352C231.181 245.638 232.327 244.303 233.794 243.347C235.272 242.381 236.995 241.898 238.965 241.898C240.101 241.898 241.223 242.087 242.331 242.466C243.439 242.845 244.448 243.46 245.357 244.312C246.266 245.155 246.99 246.273 247.53 247.665C248.07 249.057 248.34 250.771 248.34 252.807V254.227H231.522V251.33H244.931C244.931 250.098 244.685 249 244.192 248.034C243.709 247.068 243.018 246.306 242.118 245.747C241.228 245.188 240.177 244.909 238.965 244.909C237.63 244.909 236.474 245.241 235.499 245.903C234.533 246.557 233.79 247.409 233.269 248.46C232.748 249.511 232.488 250.638 232.488 251.841V253.773C232.488 255.42 232.772 256.817 233.34 257.963C233.917 259.099 234.718 259.966 235.74 260.562C236.763 261.15 237.952 261.443 239.306 261.443C240.186 261.443 240.982 261.32 241.692 261.074C242.412 260.818 243.032 260.439 243.553 259.938C244.074 259.426 244.476 258.792 244.76 258.034L247.999 258.943C247.658 260.042 247.085 261.008 246.28 261.841C245.475 262.665 244.481 263.309 243.297 263.773C242.114 264.227 240.783 264.455 239.306 264.455Z" fill="black"/>
</svg>
