<svg width="1637" height="1516" viewBox="0 0 1637 1516" fill="none" xmlns="http://www.w3.org/2000/svg">
<path d="M981.04 0H550.96C386.954 0 254 132.953 254 296.96V727.04C254 891.046 386.953 1024 550.96 1024H981.04C1145.05 1024 1278 891.047 1278 727.04V296.96C1278 132.954 1145.05 0 981.04 0Z" fill="#E8D4CA"/>
<path d="M727.6 183.04H504.88C484.379 183.04 467.76 199.66 467.76 220.16V814.08C467.76 834.58 484.379 851.2 504.88 851.2H727.6C748.1 851.2 764.72 834.58 764.72 814.08V220.16C764.72 199.66 748.1 183.04 727.6 183.04Z" stroke="#913608" stroke-width="39" stroke-linecap="round"/>
<path d="M616.24 183.04V851.2" stroke="#913608" stroke-width="5" stroke-linecap="round"/>
<path d="M1113.65 773.248C1121.07 791.808 1109.94 814.08 1091.38 821.504L1020.85 847.488C1002.29 854.912 980.016 843.776 972.592 825.216L768.432 260.992C761.008 242.432 772.144 220.16 790.704 212.736L861.232 186.752C879.792 179.328 902.064 190.464 909.488 209.024L1113.65 773.248Z" stroke="#913608" stroke-width="47" stroke-linecap="round"/>
<path d="M881.027 194.56L766 237.783L994.715 846.45L1109.74 803.227L881.027 194.56Z" fill="#913608"/>
<path d="M765 195H479V850H765V195Z" fill="#913608"/>
<path d="M657.9 270H569.1C562.97 270 558 274.388 558 279.8V750.2C558 755.612 562.97 760 569.1 760H657.9C664.03 760 669 755.612 669 750.2V279.8C669 274.388 664.03 270 657.9 270Z" fill="#E8D4CA"/>
<path d="M94.764 1308.24H80.454C80.454 1323.93 80.454 1338.77 80.454 1352.76C80.666 1366.54 80.878 1380.11 81.09 1393.46H96.036C131.864 1393.46 149.778 1379.47 149.778 1351.49C149.778 1336.86 145.326 1326.05 136.422 1319.05C127.518 1311.84 113.632 1308.24 94.764 1308.24ZM97.944 1215.38H81.09C80.878 1228.95 80.666 1242.41 80.454 1255.77C80.454 1269.13 80.454 1281.42 80.454 1292.66H93.492C109.816 1292.66 121.794 1289.37 129.426 1282.8C137.058 1276.23 140.874 1266.16 140.874 1252.59C140.874 1239.45 137.27 1230.01 130.062 1224.29C123.066 1218.35 112.36 1215.38 97.944 1215.38ZM12.402 1214.11V1199.17H109.71C134.09 1199.17 152.11 1203.94 163.77 1213.48C175.43 1223.02 181.26 1235.1 181.26 1249.73C181.26 1260.75 177.444 1270.82 169.812 1279.94C162.18 1288.84 148.824 1295.1 129.744 1298.7C152.216 1301.46 168.328 1307.6 178.08 1317.14C187.832 1326.68 192.708 1338.13 192.708 1351.49C192.708 1358.48 191.118 1365.48 187.938 1372.48C184.97 1379.26 179.988 1385.51 172.992 1391.24C166.208 1396.96 156.88 1401.52 145.008 1404.91C133.348 1408.3 118.72 1410 101.124 1410H12.402V1395.05L39.114 1392.19C39.538 1378.84 39.75 1365.37 39.75 1351.81C39.75 1338.24 39.75 1324.56 39.75 1310.78V1298.38C39.75 1284.81 39.75 1271.25 39.75 1257.68C39.75 1244.11 39.538 1230.54 39.114 1216.97L12.402 1214.11ZM286.694 1414.45C272.278 1414.45 259.24 1411.27 247.58 1404.91C236.132 1398.55 227.016 1389.33 220.232 1377.25C213.448 1365.16 210.056 1350.75 210.056 1334C210.056 1317.04 213.554 1302.52 220.55 1290.43C227.758 1278.35 237.192 1269.13 248.852 1262.77C260.512 1256.41 273.126 1253.23 286.694 1253.23C300.262 1253.23 312.876 1256.41 324.536 1262.77C336.196 1269.13 345.63 1278.35 352.838 1290.43C360.046 1302.3 363.65 1316.83 363.65 1334C363.65 1350.96 360.152 1365.48 353.156 1377.56C346.372 1389.44 337.15 1398.55 325.49 1404.91C314.042 1411.27 301.11 1414.45 286.694 1414.45ZM286.694 1398.87C298.142 1398.87 306.834 1393.57 312.77 1382.97C318.918 1372.37 321.992 1356.15 321.992 1334.32C321.992 1290.64 310.226 1268.81 286.694 1268.81C263.374 1268.81 251.714 1290.64 251.714 1334.32C251.714 1356.15 254.682 1372.37 260.618 1382.97C266.554 1393.57 275.246 1398.87 286.694 1398.87ZM458.588 1414.45C444.172 1414.45 431.134 1411.27 419.474 1404.91C408.026 1398.55 398.91 1389.33 392.126 1377.25C385.342 1365.16 381.95 1350.75 381.95 1334C381.95 1317.04 385.448 1302.52 392.444 1290.43C399.652 1278.35 409.086 1269.13 420.746 1262.77C432.406 1256.41 445.02 1253.23 458.588 1253.23C472.156 1253.23 484.77 1256.41 496.43 1262.77C508.09 1269.13 517.524 1278.35 524.732 1290.43C531.94 1302.3 535.544 1316.83 535.544 1334C535.544 1350.96 532.046 1365.48 525.05 1377.56C518.266 1389.44 509.044 1398.55 497.384 1404.91C485.936 1411.27 473.004 1414.45 458.588 1414.45ZM458.588 1398.87C470.036 1398.87 478.728 1393.57 484.664 1382.97C490.812 1372.37 493.886 1356.15 493.886 1334.32C493.886 1290.64 482.12 1268.81 458.588 1268.81C435.268 1268.81 423.608 1290.64 423.608 1334.32C423.608 1356.15 426.576 1372.37 432.512 1382.97C438.448 1393.57 447.14 1398.87 458.588 1398.87ZM547.241 1410V1396.96L568.865 1392.83C569.077 1384.77 569.183 1376.29 569.183 1367.39C569.395 1358.48 569.501 1350.43 569.501 1343.22V1206.8L546.287 1203.62V1191.22L604.163 1176.91L608.933 1179.77L607.661 1224.61V1329.23L660.449 1275.8L636.599 1271.03L636.917 1257.68H711.965V1271.03L683.027 1275.17L650.909 1306.33L699.881 1392.51L720.551 1396.96V1410H666.809L624.197 1332.41L607.661 1348.63C607.661 1355.83 607.661 1363.36 607.661 1371.2C607.873 1378.84 608.085 1386.15 608.297 1393.15L629.603 1396.96V1410H547.241ZM809.357 1308.24H795.047C795.047 1323.93 795.047 1338.77 795.047 1352.76C795.259 1366.54 795.471 1380.11 795.683 1393.46H810.629C846.457 1393.46 864.371 1379.47 864.371 1351.49C864.371 1336.86 859.919 1326.05 851.015 1319.05C842.111 1311.84 828.225 1308.24 809.357 1308.24ZM812.537 1215.38H795.683C795.471 1228.95 795.259 1242.41 795.047 1255.77C795.047 1269.13 795.047 1281.42 795.047 1292.66H808.085C824.409 1292.66 836.387 1289.37 844.019 1282.8C851.651 1276.23 855.467 1266.16 855.467 1252.59C855.467 1239.45 851.863 1230.01 844.655 1224.29C837.659 1218.35 826.953 1215.38 812.537 1215.38ZM726.995 1214.11V1199.17H824.303C848.683 1199.17 866.703 1203.94 878.363 1213.48C890.023 1223.02 895.853 1235.1 895.853 1249.73C895.853 1260.75 892.037 1270.82 884.405 1279.94C876.773 1288.84 863.417 1295.1 844.337 1298.7C866.809 1301.46 882.921 1307.6 892.673 1317.14C902.425 1326.68 907.301 1338.13 907.301 1351.49C907.301 1358.48 905.711 1365.48 902.531 1372.48C899.563 1379.26 894.581 1385.51 887.585 1391.24C880.801 1396.96 871.473 1401.52 859.601 1404.91C847.941 1408.3 833.313 1410 815.717 1410H726.995V1395.05L753.707 1392.19C754.131 1378.84 754.343 1365.37 754.343 1351.81C754.343 1338.24 754.343 1324.56 754.343 1310.78V1298.38C754.343 1284.81 754.343 1271.25 754.343 1257.68C754.343 1244.11 754.131 1230.54 753.707 1216.97L726.995 1214.11ZM1001.29 1414.45C986.872 1414.45 973.834 1411.27 962.174 1404.91C950.726 1398.55 941.61 1389.33 934.826 1377.25C928.042 1365.16 924.65 1350.75 924.65 1334C924.65 1317.04 928.148 1302.52 935.144 1290.43C942.352 1278.35 951.786 1269.13 963.446 1262.77C975.106 1256.41 987.72 1253.23 1001.29 1253.23C1014.86 1253.23 1027.47 1256.41 1039.13 1262.77C1050.79 1269.13 1060.22 1278.35 1067.43 1290.43C1074.64 1302.3 1078.24 1316.83 1078.24 1334C1078.24 1350.96 1074.75 1365.48 1067.75 1377.56C1060.97 1389.44 1051.74 1398.55 1040.08 1404.91C1028.64 1411.27 1015.7 1414.45 1001.29 1414.45ZM1001.29 1398.87C1012.74 1398.87 1021.43 1393.57 1027.36 1382.97C1033.51 1372.37 1036.59 1356.15 1036.59 1334.32C1036.59 1290.64 1024.82 1268.81 1001.29 1268.81C977.968 1268.81 966.308 1290.64 966.308 1334.32C966.308 1356.15 969.276 1372.37 975.212 1382.97C981.148 1393.57 989.84 1398.87 1001.29 1398.87ZM1207.92 1412.86L1205.37 1384.88C1189.9 1404.59 1171.88 1414.45 1151.31 1414.45C1138.17 1414.45 1127.57 1410.21 1119.51 1401.73C1111.67 1393.04 1107.85 1378.2 1108.07 1357.21L1109.34 1278.67L1088.67 1274.21V1261.81L1144.32 1255.13L1148.13 1258.63L1146.54 1303.15V1355.94C1146.54 1367.81 1148.35 1376.19 1151.95 1381.06C1155.77 1385.73 1161.17 1388.06 1168.17 1388.06C1174.1 1388.06 1180.15 1386.36 1186.29 1382.97C1192.65 1379.58 1198.7 1375.23 1204.42 1369.93L1205.37 1278.67L1185.34 1274.21V1262.45L1239.72 1255.13L1243.85 1258.63L1242.9 1303.15V1392.83L1262.3 1396.96V1410L1207.92 1412.86ZM1275.25 1410V1396.96L1295.92 1392.83C1296.13 1384.98 1296.24 1376.5 1296.24 1367.39C1296.24 1358.06 1296.24 1350 1296.24 1343.22V1326.37C1296.24 1317.67 1296.13 1310.78 1295.92 1305.7C1295.92 1300.4 1295.71 1294.57 1295.28 1288.21L1273.02 1285.34V1273.26L1326.13 1253.23L1331.22 1256.41L1333.44 1280.89C1349.77 1262.45 1367.79 1253.23 1387.5 1253.23C1401.28 1253.23 1411.88 1257.78 1419.3 1266.9C1426.93 1276.02 1430.75 1290.43 1430.75 1310.15V1343.22C1430.75 1350.43 1430.75 1358.59 1430.75 1367.71C1430.75 1376.82 1430.86 1385.3 1431.07 1393.15L1450.47 1396.96V1410H1371.92V1396.96L1392.27 1392.83C1392.48 1384.98 1392.59 1376.61 1392.59 1367.71C1392.59 1358.59 1392.59 1350.43 1392.59 1343.22V1313.01C1392.59 1300.5 1390.89 1291.92 1387.5 1287.25C1384.11 1282.38 1378.39 1279.94 1370.33 1279.94C1359.09 1279.94 1347.22 1285.13 1334.71 1295.52V1343.22C1334.71 1350.22 1334.71 1358.27 1334.71 1367.39C1334.71 1376.5 1334.82 1385.09 1335.03 1393.15L1353.79 1396.96V1410H1275.25ZM1504.95 1334.63C1504.95 1353.93 1508.55 1368.34 1515.76 1377.88C1523.18 1387.21 1532.51 1391.87 1543.74 1391.87C1549.26 1391.87 1554.24 1390.81 1558.69 1388.69C1563.35 1386.36 1567.7 1383.08 1571.73 1378.84V1287.57C1562.4 1279.51 1553.18 1275.49 1544.06 1275.49C1533.46 1275.49 1524.24 1280.26 1516.4 1289.8C1508.76 1299.34 1504.95 1314.28 1504.95 1334.63ZM1575.54 1413.5L1573 1393.46C1567.06 1400.25 1560.49 1405.44 1553.28 1409.05C1546.08 1412.65 1537.81 1414.45 1528.48 1414.45C1515.97 1414.45 1504.84 1411.27 1495.09 1404.91C1485.55 1398.55 1478.02 1389.44 1472.51 1377.56C1467 1365.69 1464.24 1351.59 1464.24 1335.27C1464.24 1318.52 1467.32 1304 1473.47 1291.7C1479.83 1279.41 1488.2 1269.97 1498.59 1263.4C1509.19 1256.62 1520.74 1253.23 1533.25 1253.23C1541.31 1253.23 1548.51 1254.71 1554.87 1257.68C1561.45 1260.65 1567.59 1265.52 1573.32 1272.31V1206.8L1548.51 1203.62V1191.22L1606.71 1176.91L1611.48 1179.77L1610.21 1224.61V1393.46L1630.88 1396.96V1410L1575.54 1413.5Z" fill="#913608"/>
</svg>
