<svg width="100" height="100" viewBox="0 0 100 100" fill="none" xmlns="http://www.w3.org/2000/svg">
<g clip-path="url(#clip0_7_2)">
<mask id="mask0_7_2" style="mask-type:luminance" maskUnits="userSpaceOnUse" x="0" y="0" width="100" height="100">
<path d="M71 0H29C12.9837 0 0 12.9837 0 29V71C0 87.0163 12.9837 100 29 100H71C87.0163 100 100 87.0163 100 71V29C100 12.9837 87.0163 0 71 0Z" fill="white"/>
</mask>
<g mask="url(#mask0_7_2)">
<path d="M100 0H0V100H100V0Z" fill="url(#paint0_linear_7_2)" fill-opacity="0.4"/>
<path d="M46.25 17.875H24.5C22.498 17.875 20.875 19.498 20.875 21.5V79.5C20.875 81.502 22.498 83.125 24.5 83.125H46.25C48.252 83.125 49.875 81.502 49.875 79.5V21.5C49.875 19.498 48.252 17.875 46.25 17.875Z" stroke="#913608" stroke-width="5" stroke-linecap="round" stroke-linejoin="round"/>
<path d="M35.375 17.875V83.125" stroke="#913608" stroke-width="5" stroke-linecap="round" stroke-linejoin="round"/>
<path d="M83.95 75.5125C84.675 77.325 83.5875 79.5 81.775 80.225L74.8875 82.7625C73.075 83.4875 70.9 82.4 70.175 80.5875L50.2375 25.4875C49.5125 23.675 50.6 21.5 52.4125 20.775L59.3 18.2375C61.1125 17.5125 63.2875 18.6 64.0125 20.4125L83.95 75.5125Z" stroke="#913608" stroke-width="5" stroke-linecap="round" stroke-linejoin="round"/>
<path d="M61.2331 19L50 23.221L72.3354 82.6611L83.5686 78.4401L61.2331 19Z" fill="#913608"/>
<path d="M48 19H22V83H48V19Z" fill="#913608"/>
<path d="M39 25H31C30.4477 25 30 25.4477 30 26V74C30 74.5523 30.4477 75 31 75H39C39.5523 75 40 74.5523 40 74V26C40 25.4477 39.5523 25 39 25Z" fill="#E6C3B1"/>
</g>
</g>
<defs>
<linearGradient id="paint0_linear_7_2" x1="50" y1="0" x2="50" y2="100" gradientUnits="userSpaceOnUse">
<stop stop-color="#CB6734" stop-opacity="0.35"/>
<stop offset="1" stop-color="#CB6734" stop-opacity="0.35"/>
</linearGradient>
<clipPath id="clip0_7_2">
<rect width="100" height="100" fill="white"/>
</clipPath>
</defs>
</svg>
