<svg width="100" height="100" viewBox="0 0 100 100" fill="none" xmlns="http://www.w3.org/2000/svg">
<g clip-path="url(#clip0_1_11)">
<rect width="100" height="100" fill="url(#paint0_linear_1_11)"/>
<path d="M46.25 17.875H24.5C22.498 17.875 20.875 19.498 20.875 21.5V79.5C20.875 81.502 22.498 83.125 24.5 83.125H46.25C48.252 83.125 49.875 81.502 49.875 79.5V21.5C49.875 19.498 48.252 17.875 46.25 17.875Z" stroke="#913608" stroke-width="5" stroke-linecap="round" stroke-linejoin="round"/>
<path d="M35.375 17.875V83.125" stroke="#913608" stroke-width="5" stroke-linecap="round" stroke-linejoin="round"/>
<path d="M83.95 75.5125C84.675 77.325 83.5875 79.5 81.775 80.225L74.8875 82.7625C73.075 83.4875 70.9 82.4 70.175 80.5875L50.2375 25.4875C49.5125 23.675 50.6 21.5 52.4125 20.775L59.3 18.2375C61.1125 17.5125 63.2875 18.6 64.0125 20.4125L83.95 75.5125Z" stroke="#913608" stroke-width="5" stroke-linecap="round" stroke-linejoin="round"/>
<rect x="50" y="23.221" width="12" height="63.498" transform="rotate(-20.5944 50 23.221)" fill="#913608"/>
<rect x="22" y="19" width="26" height="64" fill="#913608"/>
<rect x="30" y="25" width="10" height="50" rx="1" fill="#E6C3B1"/>
</g>
<defs>
<linearGradient id="paint0_linear_1_11" x1="50" y1="0" x2="50" y2="100" gradientUnits="userSpaceOnUse">
<stop stop-color="#CB6734" stop-opacity="0.35"/>
<stop offset="1" stop-color="#CB6734" stop-opacity="0.35"/>
</linearGradient>
<clipPath id="clip0_1_11">
<rect width="100" height="100" rx="29" fill="white"/>
</clipPath>
</defs>
</svg>
