<svg width="1024" height="1024" viewBox="0 0 1024 1024" fill="none" xmlns="http://www.w3.org/2000/svg">
<path d="M727.04 0H296.96C132.954 0 0 132.953 0 296.96V727.04C0 891.046 132.953 1024 296.96 1024H727.04C891.046 1024 1024 891.047 1024 727.04V296.96C1024 132.954 891.047 0 727.04 0Z" fill="#E8D4CA"/>
<path d="M473.6 183.04H250.88C230.38 183.04 213.76 199.66 213.76 220.16V814.08C213.76 834.58 230.38 851.2 250.88 851.2H473.6C494.1 851.2 510.72 834.58 510.72 814.08V220.16C510.72 199.66 494.1 183.04 473.6 183.04Z" stroke="#913608" stroke-width="39" stroke-linecap="round"/>
<path d="M362.24 183.04V851.2" stroke="#913608" stroke-width="5" stroke-linecap="round"/>
<path d="M859.648 773.248C867.072 791.808 855.936 814.08 837.376 821.504L766.848 847.488C748.288 854.912 726.016 843.776 718.592 825.216L514.432 260.992C507.008 242.432 518.144 220.16 536.704 212.736L607.232 186.752C625.792 179.328 648.064 190.464 655.488 209.024L859.648 773.248Z" stroke="#913608" stroke-width="47" stroke-linecap="round"/>
<path d="M627.027 194.56L512 237.783L740.715 846.45L855.742 803.227L627.027 194.56Z" fill="#913608"/>
<path d="M511 195H225V850H511V195Z" fill="#913608"/>
<path d="M403.9 270H315.1C308.97 270 304 274.388 304 279.8V750.2C304 755.612 308.97 760 315.1 760H403.9C410.03 760 415 755.612 415 750.2V279.8C415 274.388 410.03 270 403.9 270Z" fill="#E8D4CA"/>
</svg>
