<svg width="100" height="100" viewBox="0 0 100 100" fill="none" xmlns="http://www.w3.org/2000/svg">
<path d="M62.8333 33.5H37.1667C35.1416 33.5 33.5 35.1416 33.5 37.1667V62.8333C33.5 64.8584 35.1416 66.5 37.1667 66.5H62.8333C64.8584 66.5 66.5 64.8584 66.5 62.8333V37.1667C66.5 35.1416 64.8584 33.5 62.8333 33.5Z" stroke="white" stroke-width="3" stroke-linecap="round" stroke-linejoin="round"/>
<path d="M44.5 48.1667C46.525 48.1667 48.1667 46.525 48.1667 44.5C48.1667 42.475 46.525 40.8333 44.5 40.8333C42.475 40.8333 40.8333 42.475 40.8333 44.5C40.8333 46.525 42.475 48.1667 44.5 48.1667Z" stroke="white" stroke-width="3" stroke-linecap="round" stroke-linejoin="round"/>
<path d="M66.5 55.5L60.8423 49.8423C60.1547 49.1549 59.2223 48.7688 58.25 48.7688C57.2777 48.7688 56.3453 49.1549 55.6577 49.8423L39 66.5" stroke="white" stroke-width="3" stroke-linecap="round" stroke-linejoin="round"/>
</svg>
