<svg width="689" height="711" viewBox="0 0 689 711" fill="none" xmlns="http://www.w3.org/2000/svg">
<path fill-rule="evenodd" clip-rule="evenodd" d="M396.72 3.87693C428.829 -8.01634 464.501 8.37181 476.395 40.4814L684.45 602.188C696.344 634.297 679.954 669.969 647.845 681.862L581.266 706.523C549.156 718.417 513.484 702.029 501.591 669.919L336 222.858V653.342C336 684.822 310.48 710.342 279 710.342H57C25.5198 710.342 1.81705e-05 684.822 0 653.342V59.3418C0 27.8615 25.5198 2.34177 57 2.34177H279C299.557 2.34177 317.572 13.2247 327.599 29.5429C328.434 29.1915 329.281 28.856 330.14 28.5381L396.72 3.87693ZM121 110.342C114.925 110.342 110 115.267 110 121.342V589.342C110 595.417 114.925 600.342 121 600.342H210C216.075 600.342 221 595.417 221 589.342V121.342C221 115.267 216.075 110.342 210 110.342H121Z" fill="black"/>
</svg>
