<svg width="1024" height="1024" viewBox="0 0 1024 1024" fill="none" xmlns="http://www.w3.org/2000/svg">
<g clip-path="url(#clip0_23_148)">
<path d="M874 0H150C67.1573 0 0 67.1573 0 150V874C0 956.843 67.1573 1024 150 1024H874C956.843 1024 1024 956.843 1024 874V150C1024 67.1573 956.843 0 874 0Z" fill="url(#paint0_linear_23_148)"/>
<path fill-rule="evenodd" clip-rule="evenodd" d="M564.72 160.877C596.829 148.984 632.501 165.372 644.395 197.481L852.45 759.188C864.344 791.297 847.954 826.969 815.845 838.862L749.266 863.523C717.156 875.417 681.484 859.029 669.591 826.919L504 379.858V810.342C504 841.822 478.48 867.342 447 867.342H225C193.52 867.342 168 841.822 168 810.342V216.342C168 184.862 193.52 159.342 225 159.342H447C467.557 159.342 485.572 170.225 495.599 186.543C496.434 186.192 497.281 185.856 498.14 185.538L564.72 160.877ZM289 267.342C282.925 267.342 278 272.267 278 278.342V746.342C278 752.417 282.925 757.342 289 757.342H378C384.075 757.342 389 752.417 389 746.342V278.342C389 272.267 384.075 267.342 378 267.342H289Z" fill="white"/>
</g>
<defs>
<linearGradient id="paint0_linear_23_148" x1="512" y1="0" x2="512" y2="1024" gradientUnits="userSpaceOnUse">
<stop stop-color="#696969"/>
<stop offset="1"/>
</linearGradient>
<clipPath id="clip0_23_148">
<rect width="1024" height="1024" fill="white"/>
</clipPath>
</defs>
</svg>
